{
  "accessors": [
    {
      "bufferView": 2,
      "componentType": 5126,
      "count": 65532,
      "max": [
        181.81199645996094,
        181.81199645996094,
        35.30833053588867
      ],
      "min": [
        -181.81199645996094,
        -181.81199645996094,
        -46.826759338378906
      ],
      "type": "VEC3"
    },
    {
      "bufferView": 2,
      "byteOffset": 786384,
      "componentType": 5126,
      "count": 65532,
      "max": [
        1.0,
        1.0,
        0.9999997615814209
      ],
      "min": [
        -1.0,
        -1.0,
        -0.9999997615814209
      ],
      "type": "VEC3"
    },
    {
      "bufferView": 1,
      "componentType": 5126,
      "count": 65532,
      "max": [
        3.236515998840332,
        3.236515998840332
      ],
      "min": [
        -2.2328310012817383,
        -2.236515998840332
      ],
      "type": "VEC2"
    },
    {
      "bufferView": 0,
      "componentType": 5125,
      "count": 129558,
      "type": "SCALAR"
    },
    {
      "bufferView": 2,
      "byteOffset": 1572768,
      "componentType": 5126,
      "count": 1664,
      "max": [
        -137.29653930664063,
        115.03594207763672,
        5.086719989776611
      ],
      "min": [
        -181.11441040039063,
        -0.0002390000008745119,
        -6.469779968261719
      ],
      "type": "VEC3"
    },
    {
      "bufferView": 2,
      "byteOffset": 1592736,
      "componentType": 5126,
      "count": 1664,
      "max": [
        0.6690821647644043,
        0.9607601165771484,
        0.9398393630981445
      ],
      "min": [
        -0.9983983635902405,
        -0.6453531980514526,
        -0.9224852323532104
      ],
      "type": "VEC3"
    },
    {
      "bufferView": 1,
      "byteOffset": 524256,
      "componentType": 5126,
      "count": 1664,
      "max": [
        3.219536066055298,
        0.7072280049324036
      ],
      "min": [
        -2.236515998840332,
        -1.0389020442962646
      ],
      "type": "VEC2"
    },
    {
      "bufferView": 0,
      "byteOffset": 518232,
      "componentType": 5125,
      "count": 2496,
      "type": "SCALAR"
    },
    {
      "bufferView": 2,
      "byteOffset": 1612704,
      "componentType": 5126,
      "count": 1280,
      "max": [
        53.561195373535156,
        55.8122673034668,
        5.315276145935059
      ],
      "min": [
        -53.11268997192383,
        -55.81266403198242,
        -3.85670804977417
      ],
      "type": "VEC3"
    },
    {
      "bufferView": 2,
      "byteOffset": 1628064,
      "componentType": 5126,
      "count": 1280,
      "max": [
        0.9991372227668762,
        0.9842303395271301,
        0.7204370498657227
      ],
      "min": [
        -0.9991368651390076,
        -0.9842303395271301,
        -0.7204400300979614
      ],
      "type": "VEC3"
    },
    {
      "bufferView": 1,
      "byteOffset": 537568,
      "componentType": 5126,
      "count": 1280,
      "max": [
        1.3088459968566895,
        1.3423130512237549
      ],
      "min": [
        -0.30758899450302124,
        -0.34321698546409607
      ],
      "type": "VEC2"
    },
    {
      "bufferView": 0,
      "byteOffset": 528216,
      "componentType": 5125,
      "count": 1920,
      "type": "SCALAR"
    },
    {
      "bufferView": 2,
      "byteOffset": 1643424,
      "componentType": 5126,
      "count": 2396,
      "max": [
        180.31689453125,
        180.31689453125,
        4.0372138023376465
      ],
      "min": [
        -180.31689453125,
        -180.31689453125,
        -5.425936222076416
      ],
      "type": "VEC3"
    },
    {
      "bufferView": 2,
      "byteOffset": 1672176,
      "componentType": 5126,
      "count": 2396,
      "max": [
        0.8751732110977173,
        0.8751732110977173,
        0.6229667067527771
      ],
      "min": [
        -0.8751732110977173,
        -0.8751732110977173,
        -0.8748818635940552
      ],
      "type": "VEC3"
    },
    {
      "bufferView": 1,
      "byteOffset": 547808,
      "componentType": 5126,
      "count": 2396,
      "max": [
        3.203680992126465,
        3.2036819458007813
      ],
      "min": [
        -2.203680992126465,
        -2.2036819458007813
      ],
      "type": "VEC2"
    },
    {
      "bufferView": 0,
      "byteOffset": 535896,
      "componentType": 5125,
      "count": 6144,
      "type": "SCALAR"
    },
    {
      "bufferView": 2,
      "byteOffset": 1700928,
      "componentType": 5126,
      "count": 486,
      "max": [
        104.22221374511719,
        107.92420959472656,
        8.974125862121582
      ],
      "min": [
        -103.12918090820313,
        -129.20687866210938,
        -41.84575653076172
      ],
      "type": "VEC3"
    },
    {
      "bufferView": 2,
      "byteOffset": 1706760,
      "componentType": 5126,
      "count": 486,
      "max": [
        0.9984620213508606,
        0.9987074732780457,
        0.9803762435913086
      ],
      "min": [
        -0.9990922212600708,
        -0.9988049864768982,
        -0.4129502475261688
      ],
      "type": "VEC3"
    },
    {
      "bufferView": 1,
      "byteOffset": 566976,
      "componentType": 5126,
      "count": 486,
      "max": [
        1.8772330284118652,
        1.8909510374069214
      ],
      "min": [
        -0.8819199800491333,
        -0.8863880038261414
      ],
      "type": "VEC2"
    },
    {
      "bufferView": 0,
      "byteOffset": 560472,
      "componentType": 5125,
      "count": 846,
      "type": "SCALAR"
    },
    {
      "bufferView": 2,
      "byteOffset": 1712592,
      "componentType": 5126,
      "count": 320,
      "max": [
        64.25444030761719,
        65.86250305175781,
        34.457542419433594
      ],
      "min": [
        -63.75530242919922,
        -65.830810546875,
        -33.159873962402344
      ],
      "type": "VEC3"
    },
    {
      "bufferView": 2,
      "byteOffset": 1716432,
      "componentType": 5126,
      "count": 320,
      "max": [
        0.8099328279495239,
        0.7876449823379517,
        0.9959818720817566
      ],
      "min": [
        -0.8030553460121155,
        -0.7876397967338562,
        -0.6211787462234497
      ],
      "type": "VEC3"
    },
    {
      "bufferView": 1,
      "byteOffset": 570864,
      "componentType": 5126,
      "count": 320,
      "max": [
        1.4820330142974854,
        1.5158729553222656
      ],
      "min": [
        -0.48346999287605286,
        -0.516963005065918
      ],
      "type": "VEC2"
    },
    {
      "bufferView": 0,
      "byteOffset": 563856,
      "componentType": 5125,
      "count": 480,
      "type": "SCALAR"
    },
    {
      "bufferView": 2,
      "byteOffset": 1720272,
      "componentType": 5126,
      "count": 1144,
      "max": [
        170.10260009765625,
        169.59231567382813,
        24.45935821533203
      ],
      "min": [
        -159.3267822265625,
        -169.59231567382813,
        2.5431671142578125
      ],
      "type": "VEC3"
    },
    {
      "bufferView": 2,
      "byteOffset": 1734000,
      "componentType": 5126,
      "count": 1144,
      "max": [
        0.8617500066757202,
        0.8020483255386353,
        0.8867477774620056
      ],
      "min": [
        -0.8178734183311462,
        -0.797832727432251,
        0.4902801811695099
      ],
      "type": "VEC3"
    },
    {
      "bufferView": 1,
      "byteOffset": 573424,
      "componentType": 5126,
      "count": 1144,
      "max": [
        2.927687883377075,
        3.0577099323272705
      ],
      "min": [
        -1.9974349737167358,
        -2.0659561157226563
      ],
      "type": "VEC2"
    },
    {
      "bufferView": 0,
      "byteOffset": 565776,
      "componentType": 5125,
      "count": 1716,
      "type": "SCALAR"
    }
  ],
  "asset": {
    "extras": {
      "author": "Inditrion Dradnon (https://sketchfab.com/dradnon)",
      "license": "CC-BY-4.0 (http://creativecommons.org/licenses/by/4.0/)",
      "source": "https://sketchfab.com/3d-models/futuristic-open-concept-space-station-a61491ed860742cf95165ad8f3060749",
      "title": "Futuristic Open-Concept Space Station"
    },
    "generator": "Sketchfab-15.44.0",
    "version": "2.0"
  },
  "bufferViews": [
    {
      "buffer": 0,
      "byteLength": 572640,
      "name": "floatBufferViews",
      "target": 34963
    },
    {
      "buffer": 0,
      "byteLength": 582576,
      "byteOffset": 572640,
      "byteStride": 8,
      "name": "floatBufferViews",
      "target": 34962
    },
    {
      "buffer": 0,
      "byteLength": 1747728,
      "byteOffset": 1155216,
      "byteStride": 12,
      "name": "floatBufferViews",
      "target": 34962
    }
  ],
  "buffers": [
    {
      "byteLength": 2902944,
      "uri": "scene.bin"
    }
  ],
  "extensionsUsed": [
    "KHR_materials_specular",
    "KHR_materials_emissive_strength",
    "KHR_texture_transform"
  ],
  "images": [
    {
      "uri": "textures/MaterialFBXASC032FBXASC0352142150746_baseColor.jpeg"
    },
    {
      "uri": "textures/MaterialFBXASC032FBXASC0352142150746_metallicRoughness.png"
    },
    {
      "uri": "textures/MaterialFBXASC032FBXASC0352142150746_specularf0.png"
    },
    {
      "uri": "textures/MaterialFBXASC032FBXASC0352142147988_baseColor.jpeg"
    }
  ],
  "materials": [
    {
      "doubleSided": true,
      "extensions": {
        "KHR_materials_specular": {
          "specularColorFactor": [
            1.0,
            1.0,
            1.0
          ],
          "specularFactor": 1.0,
          "specularTexture": {
            "index": 2
          }
        }
      },
      "name": "MaterialFBXASC032FBXASC0352142150746",
      "pbrMetallicRoughness": {
        "baseColorTexture": {
          "index": 0
        },
        "metallicRoughnessTexture": {
          "index": 1
        }
      }
    },
    {
      "doubleSided": true,
      "emissiveFactor": [
        0.796079,
        0.5803920000000001,
        0.0
      ],
      "extensions": {
        "KHR_materials_emissive_strength": {
          "emissiveStrength": 10.0
        }
      },
      "name": "SG-Gold-glow",
      "pbrMetallicRoughness": {
        "baseColorFactor": [
          0.0,
          0.0,
          0.0,
          1.0
        ],
        "metallicFactor": 0.0
      }
    },
    {
      "doubleSided": true,
      "emissiveFactor": [
        0.0,
        0.9632317957615619,
        1.0
      ],
      "extensions": {
        "KHR_materials_emissive_strength": {
          "emissiveStrength": 10.0
        }
      },
      "name": "LIGHTKRAFTFBXASC032GRAVITONFBXASC032",
      "pbrMetallicRoughness": {
        "baseColorFactor": [
          0.0,
          0.0,
          0.0,
          1.0
        ],
        "metallicFactor": 0.0
      }
    },
    {
      "doubleSided": true,
      "emissiveFactor": [
        1.0,
        1.0,
        1.0
      ],
      "emissiveTexture": {
        "extensions": {
          "KHR_texture_transform": {
            "scale": [
              6.9999999999999964,
              13.000000000000009
            ]
          }
        },
        "index": 3
      },
      "extensions": {
        "KHR_materials_emissive_strength": {
          "emissiveStrength": 1.9627558992880116
        }
      },
      "name": "MaterialFBXASC032FBXASC0352142147988",
      "pbrMetallicRoughness": {
        "baseColorTexture": {
          "extensions": {
            "KHR_texture_transform": {
              "scale": [
                5,
                13.000000000000009
              ]
            }
          },
          "index": 3
        },
        "metallicFactor": 0.0
      }
    },
    {
      "doubleSided": true,
      "emissiveFactor": [
        1.0,
        0.635294,
        0.0
      ],
      "extensions": {
        "KHR_materials_emissive_strength": {
          "emissiveStrength": 10.0
        }
      },
      "name": "Engine",
      "pbrMetallicRoughness": {
        "baseColorFactor": [
          0.0,
          0.0,
          0.0,
          1.0
        ],
        "metallicFactor": 0.0
      }
    },
    {
      "doubleSided": true,
      "emissiveFactor": [
        1.0,
        0.0,
        0.0
      ],
      "extensions": {
        "KHR_materials_emissive_strength": {
          "emissiveStrength": 10.0
        }
      },
      "name": "ORDNUNGSKRAFTFBXASC032Graviton",
      "pbrMetallicRoughness": {
        "baseColorFactor": [
          0.0,
          0.0,
          0.0,
          1.0
        ],
        "metallicFactor": 0.0
      }
    }
  ],
  "meshes": [
    {
      "name": "MaterialFBXASC032FBXASC0352142150746",
      "primitives": [
        {
          "attributes": {
            "NORMAL": 1,
            "POSITION": 0,
            "TEXCOORD_0": 2
          },
          "indices": 3,
          "material": 0,
          "mode": 4
        }
      ]
    },
    {
      "name": "MaterialFBXASC032FBXASC0352142150746",
      "primitives": [
        {
          "attributes": {
            "NORMAL": 5,
            "POSITION": 4,
            "TEXCOORD_0": 6
          },
          "indices": 7,
          "material": 0,
          "mode": 4
        }
      ]
    },
    {
      "name": "SG-Gold-glow",
      "primitives": [
        {
          "attributes": {
            "NORMAL": 9,
            "POSITION": 8,
            "TEXCOORD_0": 10
          },
          "indices": 11,
          "material": 1,
          "mode": 4
        }
      ]
    },
    {
      "name": "LIGHTKRAFTFBXASC032GRAVITONFBXASC032",
      "primitives": [
        {
          "attributes": {
            "NORMAL": 13,
            "POSITION": 12,
            "TEXCOORD_0": 14
          },
          "indices": 15,
          "material": 2,
          "mode": 4
        }
      ]
    },
    {
      "name": "MaterialFBXASC032FBXASC0352142147988",
      "primitives": [
        {
          "attributes": {
            "NORMAL": 17,
            "POSITION": 16,
            "TEXCOORD_0": 18
          },
          "indices": 19,
          "material": 3,
          "mode": 4
        }
      ]
    },
    {
      "name": "Engine",
      "primitives": [
        {
          "attributes": {
            "NORMAL": 21,
            "POSITION": 20,
            "TEXCOORD_0": 22
          },
          "indices": 23,
          "material": 4,
          "mode": 4
        }
      ]
    },
    {
      "name": "ORDNUNGSKRAFTFBXASC032Graviton",
      "primitives": [
        {
          "attributes": {
            "NORMAL": 25,
            "POSITION": 24,
            "TEXCOORD_0": 26
          },
          "indices": 27,
          "material": 5,
          "mode": 4
        }
      ]
    }
  ],
  "nodes": [
    {
      "children": [
        1
      ],
      "matrix": [
        1.0,
        0.0,
        0.0,
        0.0,
        0.0,
        2.220446049250313e-16,
        -1.0,
        0.0,
        0.0,
        1.0,
        2.220446049250313e-16,
        0.0,
        0.0,
        0.0,
        0.0,
        1.0
      ],
      "name": "Sketchfab_model"
    },
    {
      "children": [
        2
      ],
      "matrix": [
        1.0,
        0.0,
        0.0,
        0.0,
        0.0,
        -4.371139006309477e-08,
        0.999999999999999,
        0.0,
        0.0,
        -0.999999999999999,
        -4.371139006309477e-08,
        0.0,
        0.0,
        0.0,
        0.0,
        1.0
      ],
      "name": "Collada visual scene group"
    },
    {
      "children": [
        3,
        4,
        5,
        6,
        7,
        8,
        9
      ],
      "matrix": [
        1.0,
        0.0,
        0.0,
        0.0,
        0.0,
        0.0,
        -1.0,
        0.0,
        0.0,
        1.0,
        0.0,
        0.0,
        0.0,
        0.0,
        0.0,
        1.0
      ],
      "name": "Torus001"
    },
    {
      "mesh": 0,
      "name": "MaterialFBXASC032FBXASC0352142150746"
    },
    {
      "mesh": 1,
      "name": "MaterialFBXASC032FBXASC0352142150746"
    },
    {
      "mesh": 2,
      "name": "SG-Gold-glow"
    },
    {
      "mesh": 3,
      "name": "LIGHTKRAFTFBXASC032GRAVITONFBXASC032"
    },
    {
      "mesh": 4,
      "name": "MaterialFBXASC032FBXASC0352142147988"
    },
    {
      "mesh": 5,
      "name": "Engine"
    },
    {
      "mesh": 6,
      "name": "ORDNUNGSKRAFTFBXASC032Graviton"
    }
  ],
  "samplers": [
    {
      "magFilter": 9729,
      "minFilter": 9987,
      "wrapS": 10497,
      "wrapT": 10497
    }
  ],
  "scene": 0,
  "scenes": [
    {
      "name": "Sketchfab_Scene",
      "nodes": [
        0
      ]
    }
  ],
  "textures": [
    {
      "sampler": 0,
      "source": 0
    },
    {
      "sampler": 0,
      "source": 1
    },
    {
      "sampler": 0,
      "source": 2
    },
    {
      "sampler": 0,
      "source": 3
    }
  ]
}
